<?xml version="1.0" encoding="UTF-8"?>
<svg version="1.1" xmlns="http://www.w3.org/2000/svg" width="400" height="400">
<path d="M0 0 C132 0 264 0 400 0 C400 132 400 264 400 400 C268 400 136 400 0 400 C0 268 0 136 0 0 Z " fill="#FEFEFE" transform="translate(0,0)"/>
<path d="M0 0 C6.10988532 2.65545016 9.84508723 7.51048696 12.78125 13.3828125 C12.90062164 16.17778467 12.95962746 18.94859107 12.97412109 21.74462891 C12.98638733 23.0425235 12.98638733 23.0425235 12.99890137 24.36663818 C13.02377583 27.23921006 13.04027958 30.11173233 13.0546875 32.984375 C13.06001118 33.96548626 13.06533485 34.94659752 13.07081985 35.95743942 C13.09756458 41.15374725 13.11693237 46.35003097 13.13134766 51.54638672 C13.14796867 56.90646062 13.19272142 62.26591647 13.2437191 67.62575722 C13.27743257 71.75227538 13.28892979 75.87864787 13.29457474 80.00529099 C13.30127941 81.98039835 13.31648102 83.9554964 13.34046555 85.93046951 C13.37219822 88.7023618 13.3721414 91.47260155 13.36474609 94.24462891 C13.38115143 95.05429108 13.39755676 95.86395325 13.41445923 96.69815063 C13.34900718 102.72037276 11.5255999 106.68449883 7.78125 111.3828125 C2.78808594 116.01062309 -1.49748992 118.06962097 -8.296875 117.86328125 C-14.51813448 116.84026666 -19.82258216 113.48442564 -25.21875 110.3828125 C-26.05148438 109.90505371 -26.88421875 109.42729492 -27.7421875 108.93505859 C-32.69451548 106.08019761 -37.62640876 103.19183043 -42.55078125 100.2890625 C-47.21578456 97.54469632 -51.90055582 94.83911337 -56.60546875 92.1640625 C-57.5349231 91.63533791 -57.5349231 91.63533791 -58.4831543 91.09593201 C-60.91855633 89.71147082 -63.35440319 88.3278368 -65.79327393 86.94949341 C-71.67649992 83.62415093 -77.53198698 80.25635105 -83.29296875 76.72265625 C-84.57627075 75.93749634 -84.57627075 75.93749634 -85.88549805 75.13647461 C-89.97288226 72.06441425 -92.89813519 68.33511805 -94.21875 63.3828125 C-94.9899779 56.62872576 -94.47412581 50.8724824 -90.21875 45.3828125 C-85.71915349 41.3011627 -81.762904 38.24740979 -75.59375 38.1328125 C-74.77648437 38.10703125 -73.95921875 38.08125 -73.1171875 38.0546875 C-65.00702265 38.97281937 -58.30025324 43.48646956 -51.46875 47.6328125 C-49.62002211 48.74257148 -47.77106246 49.85194446 -45.921875 50.9609375 C-45.00470703 51.51330078 -44.08753906 52.06566406 -43.14257812 52.63476562 C-38.19315909 55.59383713 -33.20610146 58.48826993 -28.21875 61.3828125 C-28.21510437 60.82428589 -28.21145874 60.26575928 -28.20770264 59.69030762 C-28.16572148 53.84943818 -28.09626778 48.00934315 -28.01123047 42.16894531 C-27.98309633 39.99259201 -27.9618444 37.81613797 -27.94775391 35.63964844 C-27.92621994 32.50143132 -27.87951494 29.36441587 -27.828125 26.2265625 C-27.82689636 25.26165894 -27.82566772 24.29675537 -27.82440186 23.3026123 C-27.67250989 16.21318297 -26.18603112 10.75353974 -21.4375 5.359375 C-20.58671875 4.69035156 -20.58671875 4.69035156 -19.71875 4.0078125 C-18.86796875 3.31558594 -18.86796875 3.31558594 -18 2.609375 C-12.34475603 -1.28480615 -6.64252757 -1.84774535 0 0 Z " fill="#22B3E6" transform="translate(169.21875,40.6171875)"/>
<path d="M0 0 C1.19882812 -0.02513672 1.19882812 -0.02513672 2.421875 -0.05078125 C10.48020009 0.98433509 17.16481173 5.4051396 24 9.5 C26.13076212 10.7603805 28.26230571 12.01944055 30.39453125 13.27734375 C31.50908691 13.93589355 32.62364258 14.59444336 33.77197266 15.27294922 C39.1120839 18.4146464 44.50010743 21.47263206 49.88534546 24.53607178 C51.67995121 25.55820054 53.47274294 26.58343495 55.26489258 27.60986328 C60.37043452 30.53350003 65.47983925 33.44725317 70.625 36.30078125 C72.14594934 37.15864853 73.66679287 38.01670345 75.1875 38.875 C75.8487085 39.23174805 76.50991699 39.58849609 77.19116211 39.95605469 C82.7514725 43.12915031 86.23778172 47.27584515 88.25 53.3125 C89.04310926 59.90440808 87.94142144 64.79965351 84.25 70.3125 C77.33737598 78.60764882 66.56550616 83.52555462 57.3125 88.75 C54.82342249 90.1613592 52.33555409 91.57484386 49.84765625 92.98828125 C49.21808014 93.34553284 48.58850403 93.70278442 47.93984985 94.07086182 C43.63254211 96.51767439 39.34090917 98.9902038 35.05859375 101.48046875 C34.1930764 101.98310493 34.1930764 101.98310493 33.31007385 102.49589539 C30.58078568 104.08115578 27.85340858 105.6695353 25.12915039 107.26342773 C3.76635927 119.66790905 3.76635927 119.66790905 -3.75 118.3125 C-10.68556148 115.74681087 -14.62752805 111.97563212 -17.75 105.3125 C-18.7150715 102.41728549 -19.04503025 100.2182202 -19.1875 97.1875 C-19.24808594 96.29804688 -19.30867188 95.40859375 -19.37109375 94.4921875 C-18.17273477 88.35719246 -15.03556801 83.99329852 -10.01245117 80.29931641 C-6.7672477 78.31835567 -3.47626597 76.48295691 -0.125 74.6875 C2.11730646 73.44552725 4.35949452 72.20334071 6.6015625 70.9609375 C7.69887695 70.3637793 8.79619141 69.76662109 9.92675781 69.15136719 C14.30974195 66.72610738 18.60720113 64.16551364 22.89990234 61.58447266 C25.25 60.3125 25.25 60.3125 27.25 60.3125 C24.58554054 57.26832857 21.41407747 55.52039312 17.9296875 53.51171875 C17.3115921 53.15286087 16.6934967 52.79400299 16.05667114 52.42427063 C14.08198275 51.27839953 12.10382221 50.13871522 10.125 49 C-15.66076194 34.12974209 -15.66076194 34.12974209 -18.75 24.3125 C-19.79767904 18.65316232 -18.82857284 14.0951013 -16.0234375 9.1015625 C-12.13870462 3.64387029 -6.755803 0.03227294 0 0 Z " fill="#22B3E6" transform="translate(58.75,141.6875)"/>
<path d="M0 0 C5.05510457 2.14487614 8.06560992 5.53931625 10.65234375 10.32421875 C11.92103615 14.13029596 11.83242571 17.7242079 11.86108398 21.69189453 C11.87086777 22.54594376 11.88065155 23.39999298 11.89073181 24.27992249 C11.92067316 27.10977627 11.94207088 29.93958271 11.9609375 32.76953125 C11.96750933 33.73744473 11.97408115 34.7053582 11.98085213 35.70260239 C12.01344443 40.82873829 12.03789245 45.95485345 12.05737305 51.08105469 C12.0751655 55.31606449 12.109953 59.55040586 12.15991211 63.78515625 C12.22023355 68.90451098 12.25086558 74.02324733 12.26054573 79.14294052 C12.26908323 81.08933582 12.28785909 83.03571537 12.31728935 84.98190689 C12.58002276 103.34918175 12.58002276 103.34918175 7.30921936 109.82296753 C4.60717073 112.27122241 1.96793094 113.79394774 -1.34765625 115.32421875 C-2.33765625 115.81921875 -2.33765625 115.81921875 -3.34765625 116.32421875 C-9.69390179 117.14993843 -14.35151892 116.56539575 -19.59375 112.81640625 C-24.26989754 108.83803574 -27.96188054 104.41784019 -28.5569458 98.10336304 C-28.67538149 95.32573271 -28.72896442 92.55340092 -28.76171875 89.7734375 C-28.7810849 88.75949417 -28.80045105 87.74555084 -28.82040405 86.70088196 C-28.88005051 83.47124572 -28.92652576 80.24157355 -28.97265625 77.01171875 C-29.01084974 74.81834407 -29.04990227 72.62498417 -29.08984375 70.43164062 C-29.18573973 65.06263145 -29.2708308 59.69353284 -29.34765625 54.32421875 C-32.83095747 56.33187958 -36.31401679 58.33995941 -39.796875 60.34838867 C-41.5480564 61.35811949 -43.29941623 62.36754082 -45.05078125 63.37695312 C-46.18515625 64.03115234 -47.31953125 64.68535156 -48.48828125 65.359375 C-49.62458984 66.01437988 -50.76089844 66.66938477 -51.93164062 67.34423828 C-56.27433397 69.86133684 -60.596129 72.41340302 -64.91308594 74.97436523 C-70.46496973 78.0526209 -76.14781844 78.12673583 -82.34765625 77.32421875 C-88.09402291 74.86417289 -91.77077973 70.26551647 -94.49609375 64.75 C-96.25665382 59.7348266 -96.47064454 55.04603782 -94.42578125 50.08984375 C-89.24659572 41.14397783 -80.46420004 36.90842557 -71.72265625 32.01171875 C-70.4838525 31.31183427 -69.24541482 30.6113015 -68.00732422 29.91015625 C-65.42750511 28.44981807 -62.84612651 26.9922931 -60.26367188 25.53662109 C-54.57704648 22.32795173 -48.91151814 19.0824152 -43.24493408 15.83853149 C-39.38343868 13.62851457 -35.52070255 11.42075585 -31.65185547 9.22363281 C-29.29946719 7.87136587 -26.96647983 6.50144944 -24.64111328 5.10449219 C-23.71067703 4.55323669 -23.71067703 4.55323669 -22.76144409 3.99084473 C-21.0270739 2.96240769 -19.29897389 1.92341775 -17.57128906 0.88378906 C-11.68679158 -1.96308839 -6.18785093 -1.78119503 0 0 Z " fill="#22B3E6" transform="translate(170.34765625,243.67578125)"/>
<path d="M0 0 C5.90063519 3.32131561 9.60116719 8.09808441 11.8125 14.4375 C12.05300903 16.82307434 12.05300903 16.82307434 12.03955078 19.31958008 C12.03939972 20.26017776 12.03924866 21.20077545 12.03909302 22.1698761 C12.02877045 23.1721373 12.01844788 24.1743985 12.0078125 25.20703125 C12.0049826 26.24317062 12.00215271 27.27931 11.99923706 28.34684753 C11.98806454 31.64801707 11.96296505 34.94891281 11.9375 38.25 C11.92746643 40.49153253 11.91834124 42.73306933 11.91015625 44.97460938 C11.88813478 50.4623326 11.85468621 55.94989674 11.8125 61.4375 C21.48934864 56.02305433 31.12388903 50.55012111 40.6875 44.9375 C42.76791298 43.71821034 44.84862596 42.49943237 46.9296875 41.28125 C47.82284668 40.75724609 48.71600586 40.23324219 49.63623047 39.69335938 C54.40464867 36.94164934 58.34720717 36.64586984 63.8125 37.4375 C69.26810889 39.61352634 74.68030781 42.76908957 77.26171875 48.25 C78.7996853 54.35823593 78.59334072 60.80216258 76.8125 66.8125 C70.88700044 74.58971817 62.79839728 78.96626398 54.3125 83.5 C51.8917678 84.81396113 49.47520114 86.13550271 47.05859375 87.45703125 C46.45007065 87.78867279 45.84154755 88.12031433 45.21458435 88.46200562 C39.19737191 91.75055385 33.28286343 95.20685708 27.375 98.6875 C25.41582134 99.83151174 23.4561927 100.97475326 21.49609375 102.1171875 C18.6554915 103.77295258 15.81874281 105.43378782 12.99267578 107.11425781 C10.31892141 108.70069483 7.63053034 110.25907351 4.9375 111.8125 C4.15963135 112.28333008 3.3817627 112.75416016 2.58032227 113.23925781 C-3.02970617 116.42698057 -7.76344896 117.25455966 -14.1875 116.4375 C-20.06880012 114.32910939 -23.92977251 110.86424207 -26.80479431 105.31698608 C-28.53715133 101.08459381 -28.63105333 97.14279133 -28.62329102 92.61572266 C-28.63336685 91.76108932 -28.64344269 90.90645599 -28.65382385 90.02592468 C-28.68217973 87.2176687 -28.68817392 84.40995249 -28.69140625 81.6015625 C-28.70105529 79.63772363 -28.71114836 77.6738869 -28.72166443 75.71005249 C-28.73959438 71.59961958 -28.74518862 67.48937549 -28.7434082 63.37890625 C-28.74310338 58.12759371 -28.7840708 52.87749853 -28.83572483 47.62647438 C-28.86917901 43.57193505 -28.87516303 39.51768732 -28.87357903 35.46302414 C-28.87710481 33.52782365 -28.89029376 31.59261445 -28.91357613 29.65755081 C-29.11245732 11.42277707 -29.11245732 11.42277707 -23.78697205 4.94369507 C-17.03477789 -1.41472899 -8.7592384 -3.94165728 0 0 Z " fill="#22B3E6" transform="translate(243.1875,41.5625)"/>
<path d="M0 0 C4.04384316 2.87836871 6.84438181 6.71585985 8.7890625 11.2734375 C9.6609548 17.29742066 8.79445647 22.98127324 5.7890625 28.2734375 C0.64471866 33.9337502 -6.33182144 37.48260896 -12.8984375 41.2109375 C-13.91099609 41.79294922 -14.92355469 42.37496094 -15.96679688 42.97460938 C-18.00419109 44.14568956 -20.04308211 45.31416969 -22.08349609 46.47998047 C-27.14322819 49.38152551 -32.17705663 52.32733616 -37.2109375 55.2734375 C-35.56816968 56.23861806 -33.92537383 57.20375093 -32.2824707 58.16870117 C-30.79560955 59.04343231 -29.30979823 59.91995 -27.82495117 60.7980957 C-23.3684173 63.43106778 -18.89483049 66.02839039 -14.39453125 68.5859375 C-13.4195166 69.14643799 -12.44450195 69.70693848 -11.43994141 70.28442383 C-9.53284857 71.38069091 -7.61993995 72.46691801 -5.70068359 73.54174805 C0.39341857 77.06796133 5.57381823 80.84294896 8.7890625 87.2734375 C9.43932584 94.7994362 9.86222519 102.22677602 4.7890625 108.2734375 C0.5269949 112.38518321 -3.62753311 114.64837342 -9.5859375 115.0234375 C-13.78532389 114.70667675 -16.63160665 113.76159205 -20.26953125 111.6640625 C-21.22762695 111.12040039 -22.18572266 110.57673828 -23.17285156 110.01660156 C-24.17541992 109.44135742 -25.17798828 108.86611328 -26.2109375 108.2734375 C-28.25471433 107.14517785 -30.30033327 106.0202495 -32.34765625 104.8984375 C-46.48360449 97.08655092 -60.51753042 89.1254152 -74.421875 80.90576172 C-76.41273696 79.74059163 -78.41397211 78.59307167 -80.421875 77.45751953 C-81.48535156 76.85278809 -82.54882812 76.24805664 -83.64453125 75.625 C-84.61060303 75.08182129 -85.5766748 74.53864258 -86.57202148 73.97900391 C-91.77198194 70.61820053 -96.84854028 65.47991373 -98.2109375 59.2734375 C-99.04693204 53.25892122 -98.20993618 49.27190607 -94.890625 44.1953125 C-89.24584399 37.73663284 -81.85183667 34.03593008 -74.4609375 29.8984375 C-73.21688783 29.19601573 -71.97324161 28.49287898 -70.72998047 27.7890625 C-68.81023138 26.70232843 -66.89027536 25.61598502 -64.96908569 24.53179932 C-58.39904311 20.82312638 -51.86647015 17.05119387 -45.3359375 13.2734375 C-43.20058097 12.04156241 -41.06516675 10.80978732 -38.9296875 9.578125 C-35.48748269 7.59128076 -32.04934424 5.59789538 -28.6171875 3.59375 C-27.96218262 3.21347656 -27.30717773 2.83320313 -26.63232422 2.44140625 C-25.00299576 1.49543028 -23.37634196 0.54485125 -21.75 -0.40625 C-14.679665 -4.0828242 -6.92260299 -3.88879291 0 0 Z " fill="#22B3E6" transform="translate(348.2109375,144.7265625)"/>
<path d="M0 0 C5.25666579 2.42109621 10.2667298 5.33739602 15.30078125 8.18359375 C16.39608154 8.80024902 17.49138184 9.4169043 18.61987305 10.05224609 C29.13602105 15.99107812 39.58320182 22.04462363 49.98535156 28.18066406 C52.86132537 29.86994491 55.74802907 31.53960826 58.63671875 33.20703125 C60.44173128 34.26116239 62.2464339 35.31582444 64.05078125 36.37109375 C64.8703833 36.83918457 65.68998535 37.30727539 66.53442383 37.78955078 C72.1764836 41.11907585 76.71034738 44.41229215 78.86328125 50.87109375 C79.53945967 57.93232841 79.89619907 64.3611856 75.46875 70.21484375 C71.15403548 74.66603343 67.15961177 77.13897097 60.86328125 77.37109375 C51.98844381 77.25116351 44.44080114 72.06849124 37.11328125 67.62109375 C35.26455336 66.51133477 33.41559371 65.40196179 31.56640625 64.29296875 C30.64923828 63.74060547 29.73207031 63.18824219 28.78710938 62.61914062 C23.83769034 59.66006912 18.85063271 56.76563632 13.86328125 53.87109375 C13.85963562 54.42962036 13.85598999 54.98814697 13.85223389 55.56359863 C13.81025273 61.40446807 13.74079903 67.2445631 13.65576172 73.08496094 C13.62762758 75.26131424 13.60637565 77.43776828 13.59228516 79.61425781 C13.57075119 82.75247493 13.52404619 85.88949038 13.47265625 89.02734375 C13.47081329 90.4746991 13.47081329 90.4746991 13.46893311 91.95129395 C13.31693101 99.04586358 11.80806265 104.45857303 7.1171875 109.89453125 C1.6086155 114.2963001 -2.62971319 116.37440005 -9.796875 116.18359375 C-15.21204488 115.46036572 -19.45224173 112.9717778 -23.01171875 108.87109375 C-26.7957295 103.52896093 -27.43142527 99.88427042 -27.41137695 93.34228516 C-27.41648788 92.48327103 -27.42159882 91.6242569 -27.42686462 90.73921204 C-27.44076144 87.90028917 -27.43980363 85.06160908 -27.4375 82.22265625 C-27.44138718 80.24734405 -27.4457219 78.27203269 -27.45048523 76.29672241 C-27.45794786 72.1557952 -27.45765606 68.01495324 -27.45239258 63.87402344 C-27.44660118 58.57224995 -27.46352085 53.27082617 -27.48673725 47.96911049 C-27.50148341 43.88898687 -27.50234503 39.80894727 -27.49922752 35.72880173 C-27.4997404 33.77441084 -27.50497179 31.8200152 -27.51503944 29.86565018 C-27.52740206 27.12976758 -27.52061295 24.39456348 -27.5090332 21.65869141 C-27.51667694 20.85433151 -27.52432068 20.04997162 -27.53219604 19.22123718 C-27.47404176 12.99213265 -25.96494606 8.93987729 -21.76171875 4.18359375 C-15.1333503 -1.65568322 -8.51847003 -3.06580055 0 0 Z " fill="#22B3E6" transform="translate(242.13671875,244.12890625)"/>
<path d="M0 0 C8.33203026 2.20249792 13.85268382 9.74300511 19.52929688 15.87402344 C20.90388128 17.30531511 22.28146399 18.73373363 23.66210938 20.15917969 C35.78091245 32.75707408 35.78091245 32.75707408 35.69042969 41.40722656 C33.84041018 48.70022952 27.99904188 53.61655095 22.73095703 58.72167969 C20.66026946 60.74319269 18.66834705 62.82451289 16.67382812 64.92089844 C5.89211568 75.86300658 5.89211568 75.86300658 -2.71289062 76.32714844 C-9.53658135 75.52597468 -12.788318 73.00715501 -17.22070312 67.99902344 C-18.57976 66.66248822 -19.93938382 65.32647094 -21.30941772 64.00119019 C-23.28424144 62.08270215 -25.22607114 60.13239576 -27.16870117 58.18139648 C-28.67642408 56.66823678 -30.18952071 55.16059459 -31.703125 53.65332031 C-32.66633705 52.6894487 -33.62923952 51.7252676 -34.59179688 50.76074219 C-35.45732178 49.89408936 -36.32284668 49.02743652 -37.21459961 48.13452148 C-40.25889289 44.89386999 -40.49893718 42.75390093 -40.72070312 38.37402344 C-40.79289063 37.37113281 -40.86507812 36.36824219 -40.93945312 35.33496094 C-39.84863772 30.27215467 -36.79646007 27.61498399 -33.22070312 23.99902344 C-32.39699219 23.15033691 -31.57328125 22.30165039 -30.72460938 21.42724609 C-27.99389356 18.63822849 -25.23645941 15.87827172 -22.47070312 13.12402344 C-21.51610779 12.1658577 -20.5616797 11.20752531 -19.60742188 10.24902344 C-18.24810547 8.89164063 -18.24810547 8.89164063 -16.86132812 7.50683594 C-16.04180664 6.68844238 -15.22228516 5.87004883 -14.37792969 5.02685547 C-9.79024544 0.7143492 -6.18532102 -0.09787987 0 0 Z " fill="#24B4E6" transform="translate(201.220703125,162.0009765625)"/>
<path d="M0 0 C3.7997084 1.88759707 6.39681323 4.48365176 8.28125 8.28515625 C9.99336698 13.61399372 9.87923415 19.17089223 7.37890625 24.21484375 C3.9609463 28.59684368 0.91635744 30.88252162 -4.5234375 31.71875 C-10.1974181 31.98325135 -13.6633584 31.19907479 -18.05859375 27.33984375 C-22.20832005 22.6177414 -22.40810745 18.1447198 -22.3359375 12.06640625 C-21.80698398 6.86627165 -19.16290766 4.33898491 -15.43359375 0.96484375 C-10.33063302 -1.49213734 -5.42598513 -1.7400218 0 0 Z " fill="#F7FCFE" transform="translate(366.05859375,64.66015625)"/>
<path d="M0 0 C3.5362695 0.88546843 5.18688189 2.71239128 7.71484375 5.3046875 C8.58625 6.17480469 9.45765625 7.04492188 10.35546875 7.94140625 C12.56114101 10.73934236 13.55407482 12.05909863 13.46484375 15.6171875 C11.69921875 18.22265625 11.69921875 18.22265625 9.21484375 20.8046875 C8.4053125 21.66449219 7.59578125 22.52429688 6.76171875 23.41015625 C4.46484375 25.6171875 4.46484375 25.6171875 1.46484375 27.6171875 C-3.30193608 27.45908535 -5.57577348 25.14391751 -8.84765625 21.8671875 C-9.73066406 21.00609375 -10.61367187 20.145 -11.5234375 19.2578125 C-13.53515625 16.6171875 -13.53515625 16.6171875 -14.15234375 14.15234375 C-13.25470529 10.46520856 -11.00009393 8.35497738 -8.34765625 5.8046875 C-7.86490234 5.30259766 -7.38214844 4.80050781 -6.88476562 4.28320312 C-4.7020706 2.12980602 -3.00411114 0.73135526 0 0 Z " fill="#F9FDFE" transform="translate(198.53515625,186.3828125)"/>
<path d="M0 0 C3.7997084 1.88759707 6.39681323 4.48365176 8.28125 8.28515625 C9.99336698 13.61399372 9.87923415 19.17089223 7.37890625 24.21484375 C3.9609463 28.59684368 0.91635744 30.88252162 -4.5234375 31.71875 C-10.1974181 31.98325135 -13.6633584 31.19907479 -18.05859375 27.33984375 C-22.20832005 22.6177414 -22.40810745 18.1447198 -22.3359375 12.06640625 C-21.80698398 6.86627165 -19.16290766 4.33898491 -15.43359375 0.96484375 C-10.33063302 -1.49213734 -5.42598513 -1.7400218 0 0 Z M-17.05859375 6.33984375 C-19.75354612 10.83143104 -19.71866291 15.23638218 -19.05859375 20.33984375 C-17.4516624 23.55370645 -16.11523206 25.50962794 -13.30859375 27.71484375 C-8.64472639 29.01036246 -4.61883481 29.03328422 -0.24609375 27.08984375 C4.57542275 23.23263055 5.59600335 19.95503714 6.37890625 14.02734375 C5.79305449 9.08945031 3.5367399 6.63711865 -0.05859375 3.33984375 C-5.83970726 0.449287 -12.82626028 1.5784686 -17.05859375 6.33984375 Z " fill="#31B8E7" transform="translate(366.05859375,64.66015625)"/>
<path d="M0 0 C8.21766784 -0.36254417 8.21766784 -0.36254417 11.5625 1.1875 C13 3 13 3 13.3125 5.4375 C13 8 13 8 12.4375 10.125 C11.77876382 12.20883241 11.77876382 12.20883241 13 15 C10.5625 14.625 10.5625 14.625 8 14 C7.67 13.34 7.34 12.68 7 12 C6.01 11.67 5.02 11.34 4 11 C4 11.99 4 12.98 4 14 C2.68 14 1.36 14 0 14 C0 9.38 0 4.76 0 0 Z " fill="#31B8E7" transform="translate(353,72)"/>
<path d="M0 0 C0.99 0.33 1.98 0.66 3 1 C4.66362417 1.34820041 6.32995171 1.68404492 8 2 C8 2.33 8 2.66 8 3 C4.37 3.66 0.74 4.32 -3 5 C-2.67 3.68 -2.34 2.36 -2 1 C-1.34 0.67 -0.68 0.34 0 0 Z " fill="#45BFE9" transform="translate(354,64)"/>
<path d="M0 0 C2.475 0.495 2.475 0.495 5 1 C4.67 1.99 4.34 2.98 4 4 C2.68 4 1.36 4 0 4 C0 2.68 0 1.36 0 0 Z " fill="#E8F7FC" transform="translate(357,76)"/>
</svg>
